<?xml version="1.0" standalone="no"?>
<!DOCTYPE svg PUBLIC "-//W3C//DTD SVG 20010904//EN"
 "http://www.w3.org/TR/2001/REC-SVG-20010904/DTD/svg10.dtd">
<svg version="1.0" xmlns="http://www.w3.org/2000/svg"
 width="70.000000pt" height="70.000000pt" viewBox="0 0 70.000000 70.000000"
 preserveAspectRatio="xMidYMid meet">
<metadata>
Created by potrace 1.14, written by Peter Selinger 2001-2017
</metadata>
<g transform="translate(0.000000,70.000000) scale(0.100000,-0.100000)"
fill="#000000" stroke="none">
<path d="M248 625 c-85 -23 -141 -69 -170 -140 -24 -59 -26 -68 -17 -87 7 -12
3 -21 -13 -32 -34 -24 -29 -96 7 -96 23 0 38 -39 32 -87 -5 -49 1 -57 34 -44
18 6 32 3 59 -15 78 -52 237 -57 328 -11 32 16 58 23 80 19 l33 -4 -2 58 c-2
36 2 59 9 62 53 17 75 80 40 109 -17 13 -23 28 -22 53 1 38 -32 112 -65 147
-25 27 -86 59 -127 69 -54 12 -159 11 -206 -1z"/>
</g>
</svg>
